<mxfile host="app.diagrams.net" modified="2023-11-25T13:14:35.423Z" agent="Mozilla/5.0 (Windows NT 10.0; Win64; x64) AppleWebKit/537.36 (KHTML, like Gecko) Chrome/119.0.0.0 Safari/537.36" version="22.1.4" etag="mZ8MQ1CEZkpXq221NxZ-" type="github">
  <diagram name="Страница — 1" id="S542uaC0YKSNVzdbEaBa">
    <mxGraphModel>
      <root>
        <mxCell id="0" />
        <mxCell id="1" parent="0" />
      </root>
    </mxGraphModel>
  </diagram>
</mxfile>
